<?xml version="1.0" encoding="UTF-8"?>
<svg width="234px" height="246px" viewBox="0 0 234 246" version="1.1" xmlns="http://www.w3.org/2000/svg" xmlns:xlink="http://www.w3.org/1999/xlink">
    <title>Group 4</title>
    <g id="Página-1" stroke="none" stroke-width="1" fill="none" fill-rule="evenodd">
        <g id="Group-4" transform="translate(0, 3.4526)">
            <g id="Oval" transform="translate(0, 0)">
                <circle fill="#FFFFFF" cx="117" cy="124.861776" r="117"></circle>
                <ellipse id="Oval-Copy" fill="#F95C4B" cx="117" cy="124.536645" rx="108.333333" ry="108.335"></ellipse>
                <g id="Path-2" transform="translate(17.172, 0)" stroke="#FFFFFF" stroke-linecap="round" stroke-linejoin="round" stroke-width="5">
                    <path d="M10.6039366,86.2439375 C25.3051062,65.0228924 44.5059197,58.4088091 68.2063769,66.4016877 C103.757063,78.3910056 118.207984,116.266453 120.820535,118.354049 C123.433086,120.441645 126.234747,118.399213 130.36852,116.073235 C134.502293,113.747258 137.500171,112.776687 137.514593,110.527682 C137.529016,108.278678 120.05607,72.5551314 132.853445,45.7486289 C141.385028,27.8776273 158.218751,22.6169052 183.354614,29.9664628" transform="translate(96.9793, 72.988) rotate(20) translate(-96.9793, -72.988)"></path>
                    <path d="M35.8728071,132.221048 C37.4279529,125.675812 42.7597688,117.434502 51.8682548,107.497117 C57.2607825,101.613854 64.4378973,96.9969565 73.3995993,93.646425" id="Path-3" transform="translate(54.6362, 112.9337) rotate(20) translate(-54.6362, -112.9337)"></path>
                    <path d="M143.458419,109.463588 C154.622695,106.14431 163.487844,104.513906 170.053866,104.572376 C179.485071,104.65636 187.871598,107.457487 195.213447,112.975757" id="Path-4" transform="translate(169.3359, 108.7733) rotate(20) translate(-169.3359, -108.7733)"></path>
                    <path d="M100.422926,150.290732 C107.74943,152.652366 114.343699,152.310901 120.205734,149.266337 C124.617574,146.97496 128.278949,142.208347 131.189859,134.966498" id="Path-5" transform="translate(115.8064, 143.4024) rotate(20) translate(-115.8064, -143.4024)"></path>
                </g>
            </g>
        </g>
    </g>
</svg>