<svg width="298px" height="269px" viewBox="0 0 298 269" version="1.1" xmlns="http://www.w3.org/2000/svg" xmlns:xlink="http://www.w3.org/1999/xlink">
    <g stroke="none" stroke-width="1" fill="none" fill-rule="evenodd">
        <g transform="translate(12.000000, 12.000000)">
            <g transform="translate(0.375921, 0.000000)" fill-rule="nonzero">
                <path d="M137.246557,2.54089482 C171.487216,2.49821571 205.920384,29.2622663 231.203862,65.1477741 C262.02186,108.888573 276.929943,162.875613 267.605033,187.821513 C258.817554,211.348009 228.581845,229.621683 188.35711,237.679175 C155.789597,244.194142 117.693143,244.394554 84.9709217,237.681857 C47.895609,230.066691 18.5351255,213.203332 7.09357682,189.167553 C1.0539875,176.479376 1.28354589,156.205492 8.44784369,132.874302 C14.8809177,111.924408 26.5058116,88.4429837 41.3675474,67.3750134 C67.3605406,30.5273922 103.041049,2.58413646 137.246557,2.54089482 Z" stroke="#FFFFFF" stroke-width="28" fill="#E6E6E6"></path>
                <polygon fill="#FFFFFF" points="136.5 85.1054688 90.223688 103.692383 40.708063 96.6162109 53.5994412 65.7294771 106.83404 19.1113281 167.978023 20.5058848 205.696014 52.4933037 224.338922 76.2949219 205.696014 93.9160156"></polygon>
                <path d="M243.817484,177.797752 C238.413465,192.278685 221.865329,203.172103 200.165234,210.15082 C198.629958,210.639676 197.071767,211.113136 195.490662,211.567349 C194.215084,211.933029 191.6181,211.882989 191.6181,208.514882 L191.6181,164.456386 C191.6181,157.327549 185.832172,151.495913 178.747752,151.495913 L93.6774214,151.495913 C86.5930011,151.495913 80.8070729,157.327549 80.8070729,164.456386 L80.8070729,208.457144 C80.8070729,211.640485 78.1604405,211.840647 76.8619485,211.451871 C54.6004467,204.788794 36.8416571,193.749104 29.3638701,178.009461 C20.916033,160.245106 32.3045728,122.260563 53.40507,88.7142234 C74.5170242,55.1678834 105.344755,26.0481973 135.752386,26.009666 C136.088466,26.009666 136.413089,26.028951 136.737712,26.0404988 C137.054697,26.028951 137.367863,26.009666 137.684847,26.009666 C153.094894,25.9904584 168.302528,33.1500903 182.223128,44.4861743 C196.143727,55.8145595 208.777292,71.3270957 219.058294,87.9828633 C239.61648,121.309795 250.737683,159.28279 243.817484,177.797752 Z M3.75113801,188.773203 C15.0265533,212.470381 44.9046856,227.639961 80.8233552,235.020798 C115.886728,242.21692 156.711902,241.986029 191.611088,235.001557 C229.881826,227.332106 261.019994,211.546814 269.618787,188.515374 C286.934739,142.171574 213.967186,-0.0961560804 136.856785,-3.55271368e-13 C60.7505958,0.0962536167 -17.3907429,144.338107 3.75113801,188.773203 Z" fill="#3B393B"></path>
            </g>
            <path d="M55.1027717,65.7145349 C44.9882539,79.7728684 43.1050353,90.3616765 49.4531162,97.4809597 C54.1956286,102.79962 63.8035433,105.4375 77.8604367,105.4375 C103.799281,105.4375 116.588453,87.9633642 135.366364,85.0856105 C156.166381,81.8979651 171.005086,86.3069023 181.371107,90.9704942 C193.361704,96.3649709 210.536709,97.0103102 217.098194,86.8020349 C220.686594,81.2192458 220.768785,75.0322674 217.214576,67.8391976 C213.880454,61.0915443 210.578913,56.0513955 207.309951,52.71875" stroke="#3B393B" stroke-width="17" stroke-linecap="square"></path>
        </g>
    </g>
</svg>